<svg viewBox="0 0 24 24" fill="none" xmlns="http://www.w3.org/2000/svg">
<path fill-rule="evenodd" clip-rule="evenodd" d="M12 22C17.5228 22 22 17.5228 22 12C22 6.47715 17.5228 2 12 2C6.47715 2 2 6.47715 2 12C2 17.5228 6.47715 22 12 22ZM11.7084 7.91665H15.7917V11.3194L14.4306 12.6805H13.0695L11.7084 11.3194V7.91665ZM17.8334 13.7014V16.0833H9.66675V13.7014L12.0487 12.6805L12.7292 13.3611H14.7709L15.4515 12.6805L17.8334 13.7014ZM9.08339 15.4999V13.3999L11.1251 12.2916V8.49992H9.03478V11.2999L9.71533 11.9999L7.33339 13.0499V15.4999H9.08339ZM6.75007 12.5833V14.0416H6.16674V12.2916L7.62507 11.4166L7.04174 10.8333V9.08328H8.50007V11.7083L6.75007 12.5833ZM4 12C4 7.58172 7.58172 4 12 4C16.4183 4 20 7.58172 20 12C20 16.4183 16.4183 20 12 20C7.58172 20 4 16.4183 4 12Z" fill="currentColor"/>
</svg>